<?xml version="1.0" standalone="no"?>
<!DOCTYPE svg PUBLIC "-//W3C//DTD SVG 20010904//EN"
 "http://www.w3.org/TR/2001/REC-SVG-20010904/DTD/svg10.dtd">
<svg version="1.0" xmlns="http://www.w3.org/2000/svg"
 width="700.000000pt" height="700.000000pt" viewBox="0 0 700.000000 700.000000"
 preserveAspectRatio="xMidYMid meet">
<metadata>
Created by potrace 1.14, written by Peter Selinger 2001-2017
</metadata>
<g transform="translate(0.000000,700.000000) scale(0.100000,-0.100000)"
fill="#000000" stroke="none">
<path d="M3160 6984 c-786 -94 -1504 -508 -1980 -1143 -455 -608 -657 -1401
-544 -2136 151 -982 889 -2082 2079 -3102 250 -214 525 -429 713 -557 l71 -49
58 38 c32 21 130 92 218 158 802 602 1501 1316 1952 1992 485 729 705 1424
662 2097 -45 721 -338 1368 -849 1878 -462 461 -1059 749 -1710 824 -166 20
-508 19 -670 0z m525 -290 c133 -9 248 -25 355 -49 14 -4 34 -8 45 -10 56 -10
81 -16 95 -22 8 -3 26 -8 40 -10 13 -2 30 -9 37 -15 7 -6 13 -7 13 -3 0 4 7 2
15 -5 8 -7 15 -9 15 -5 0 4 7 2 15 -5 8 -7 15 -9 15 -5 0 4 7 2 15 -5 8 -7 15
-9 15 -5 0 4 7 2 15 -5 8 -7 15 -9 15 -6 0 4 10 1 23 -6 12 -7 24 -13 27 -14
14 -3 48 -17 75 -30 17 -8 33 -15 37 -15 13 0 213 -102 216 -110 2 -4 19 -13
38 -19 19 -6 34 -16 34 -21 0 -5 5 -9 12 -9 6 0 26 -11 44 -25 18 -14 37 -25
43 -25 6 0 11 -4 11 -10 0 -5 6 -10 13 -10 7 0 24 -11 39 -25 15 -14 31 -25
35 -25 4 0 25 -15 46 -33 20 -17 51 -43 68 -57 106 -86 243 -217 314 -303 22
-26 49 -59 61 -72 11 -14 29 -36 40 -51 10 -14 31 -40 46 -57 15 -18 28 -38
28 -44 0 -7 5 -13 10 -13 6 0 10 -5 10 -10 0 -6 9 -20 20 -32 11 -12 20 -28
20 -35 0 -7 4 -13 8 -13 5 0 19 -21 32 -47 13 -27 27 -50 30 -53 4 -3 18 -29
30 -57 12 -29 27 -53 32 -53 5 0 6 -4 3 -10 -3 -5 -1 -10 6 -10 7 0 9 -3 6 -7
-4 -3 9 -35 29 -70 19 -34 32 -63 28 -63 -3 0 1 -11 10 -25 9 -14 14 -25 11
-25 -3 0 0 -10 7 -22 7 -13 13 -25 14 -28 0 -3 4 -14 8 -25 17 -45 19 -50 21
-57 4 -13 5 -18 6 -25 0 -5 5 -14 11 -20 6 -7 8 -13 5 -13 -3 0 1 -16 9 -35 8
-19 12 -35 9 -35 -3 0 -1 -8 4 -18 6 -11 12 -30 15 -43 3 -13 7 -35 11 -49 22
-100 31 -146 40 -205 20 -128 28 -244 27 -410 0 -198 -10 -303 -47 -490 -3
-16 -6 -38 -6 -47 0 -10 -4 -20 -9 -23 -5 -3 -7 -12 -4 -19 3 -8 0 -17 -5 -21
-6 -3 -9 -11 -6 -16 4 -5 3 -15 -2 -21 -4 -7 -9 -19 -10 -25 -3 -15 -11 -47
-12 -50 -1 -2 -1 -5 -1 -8 -1 -2 -7 -20 -16 -40 -8 -19 -11 -35 -8 -35 4 0 1
-7 -6 -15 -7 -8 -9 -15 -4 -15 4 0 3 -5 -4 -12 -7 -7 -12 -18 -12 -24 0 -7 -5
-25 -11 -41 -6 -15 -11 -30 -11 -33 0 -3 -5 -14 -11 -25 -6 -11 -12 -22 -12
-25 0 -3 -6 -15 -13 -27 -7 -13 -10 -23 -7 -23 4 0 -3 -16 -15 -35 -12 -19
-19 -35 -15 -35 3 0 -10 -28 -29 -62 -19 -35 -35 -67 -36 -73 -1 -22 -12 -45
-21 -45 -6 0 -7 -4 -4 -10 3 -5 2 -10 -3 -10 -5 0 -23 -30 -41 -67 -43 -93
-63 -127 -73 -131 -4 -2 -8 -9 -8 -16 0 -7 -9 -23 -20 -36 -11 -13 -20 -29
-20 -37 0 -7 -4 -13 -9 -13 -5 0 -12 -8 -15 -17 -13 -33 -31 -63 -38 -63 -5 0
-8 -7 -8 -15 0 -8 -4 -15 -10 -15 -5 0 -10 -7 -10 -15 0 -8 -4 -15 -10 -15 -5
0 -10 -7 -10 -15 0 -8 -4 -15 -10 -15 -5 0 -10 -7 -10 -15 0 -8 -4 -15 -10
-15 -5 0 -10 -6 -10 -13 0 -7 -11 -24 -25 -39 -14 -15 -25 -31 -25 -35 0 -4
-13 -22 -28 -39 -15 -18 -34 -42 -42 -54 -8 -12 -22 -30 -30 -41 -8 -11 -24
-31 -35 -45 -11 -14 -29 -37 -40 -50 -11 -13 -29 -36 -40 -50 -11 -14 -29 -37
-40 -50 -11 -13 -36 -42 -55 -65 -19 -23 -46 -54 -60 -70 -14 -15 -52 -58 -85
-95 -70 -78 -453 -464 -541 -544 -34 -30 -84 -75 -113 -100 -29 -25 -65 -56
-80 -70 -30 -26 -88 -75 -131 -111 -14 -11 -37 -30 -51 -42 -14 -12 -38 -31
-54 -42 -15 -11 -35 -27 -44 -35 -27 -24 -76 -64 -101 -80 -13 -8 -30 -23 -39
-32 -8 -10 -20 -18 -26 -18 -6 0 -18 -8 -27 -17 -25 -27 -46 -43 -57 -43 -5 0
-11 -7 -15 -15 -3 -8 -10 -15 -16 -15 -10 0 -21 -8 -55 -37 -7 -7 -16 -13 -20
-13 -3 0 -18 -11 -33 -25 -15 -14 -32 -25 -39 -25 -6 0 -14 -6 -17 -12 -5 -11
-7 -11 -12 0 -3 6 -12 12 -20 12 -8 0 -14 5 -14 10 0 6 -5 10 -10 10 -10 0
-22 8 -55 38 -7 6 -16 12 -20 12 -4 0 -12 6 -19 13 -8 6 -24 19 -36 27 -12 8
-28 21 -36 27 -7 7 -16 13 -21 13 -5 0 -16 8 -24 18 -9 9 -26 24 -38 32 -41
28 -63 45 -79 63 -9 9 -21 17 -27 17 -6 0 -18 8 -27 18 -9 9 -29 26 -44 37
-27 21 -59 47 -106 87 -15 13 -44 37 -64 53 -21 17 -53 44 -70 60 -18 17 -54
48 -80 70 -120 103 -334 307 -457 434 -40 41 -99 102 -132 136 -33 33 -82 87
-110 119 -27 32 -61 71 -75 86 -14 15 -38 44 -55 64 -16 20 -40 47 -52 60 -13
13 -23 27 -23 31 0 4 -10 18 -22 30 -13 12 -32 34 -43 49 -11 14 -27 34 -35
45 -8 11 -22 29 -30 41 -8 12 -22 30 -30 40 -8 10 -22 28 -30 40 -8 12 -21 28
-27 36 -7 7 -13 17 -13 23 0 6 -4 11 -8 11 -5 0 -17 16 -28 35 -10 19 -22 35
-26 35 -5 0 -8 7 -8 15 0 8 -4 15 -10 15 -5 0 -10 7 -10 15 0 8 -4 15 -10 15
-5 0 -10 7 -10 15 0 8 -4 15 -8 15 -5 0 -17 18 -28 40 -10 22 -22 40 -26 40
-5 0 -8 7 -8 15 0 8 -4 15 -10 15 -5 0 -12 11 -16 25 -3 14 -10 25 -14 25 -5
0 -14 16 -20 35 -6 19 -15 35 -20 35 -5 0 -14 16 -20 35 -6 19 -17 41 -25 48
-19 20 -124 234 -118 241 4 3 0 6 -7 6 -7 0 -10 3 -7 7 4 3 -3 21 -14 40 -11
18 -18 33 -14 33 4 0 -2 15 -13 33 -12 17 -21 37 -23 42 -2 14 -8 32 -16 53
-3 9 -7 19 -8 22 -1 3 -5 12 -8 20 -10 23 -49 143 -52 160 -2 8 -4 15 -5 15
-1 0 -4 9 -6 20 -8 34 -12 50 -14 50 -1 0 -3 7 -5 15 -2 8 -7 26 -10 40 -3 14
-8 34 -10 45 -2 11 -6 31 -9 45 -37 157 -49 282 -49 515 0 180 5 276 19 355 3
19 7 46 9 60 6 38 12 72 20 105 3 17 8 39 10 50 2 11 6 31 10 45 3 14 9 39 12
55 2 17 10 36 15 43 6 6 8 12 4 12 -3 0 3 21 13 48 10 26 19 49 19 52 1 7 9
31 18 55 7 19 10 27 13 40 0 3 0 6 -1 8 -1 1 6 17 15 35 43 81 48 92 42 92 -8
0 94 201 111 217 8 8 14 21 14 28 0 7 6 20 12 27 19 20 38 50 44 71 4 9 10 17
15 17 5 0 9 7 9 15 0 8 5 15 10 15 6 0 10 7 10 15 0 8 5 15 10 15 6 0 10 5 10
11 0 6 6 16 13 23 6 8 19 24 27 36 8 12 22 30 30 41 8 11 24 31 35 45 45 59
86 103 197 213 108 108 139 137 212 194 15 12 35 30 44 40 9 9 20 17 25 17 7
0 20 9 52 38 7 6 16 12 20 12 3 0 15 9 27 20 12 11 28 20 35 20 7 0 13 5 13
10 0 6 7 10 15 10 8 0 15 4 15 9 0 5 8 12 18 15 17 6 55 27 82 45 22 15 238
122 247 122 5 0 22 9 38 19 17 10 33 19 37 20 13 1 42 11 63 21 12 6 27 11 35
13 8 2 23 6 32 10 9 4 25 9 35 11 10 2 19 4 21 5 1 2 7 4 12 5 6 1 12 3 15 4
3 0 8 1 13 2 4 1 14 5 23 10 9 4 27 10 40 13 25 5 52 12 92 22 46 12 134 28
210 39 85 12 117 15 222 21 61 3 112 8 115 11 3 3 41 2 85 -1 44 -4 116 -9
160 -12z"/>
<path d="M3308 6115 c-2 -2 -28 -7 -58 -10 -78 -7 -144 -18 -190 -30 -14 -4
-34 -8 -45 -10 -34 -7 -60 -13 -60 -15 0 -1 -9 -4 -20 -6 -11 -3 -24 -6 -30
-7 -5 -1 -16 -6 -22 -10 -7 -5 -13 -5 -13 -1 0 3 -7 1 -15 -6 -8 -7 -15 -9
-15 -5 0 4 -7 2 -15 -5 -8 -7 -15 -9 -15 -5 0 4 -7 2 -15 -5 -8 -7 -15 -10
-15 -7 0 4 -23 -5 -51 -19 -28 -15 -56 -27 -63 -28 -18 -3 -170 -80 -184 -93
-7 -7 -24 -16 -38 -19 -13 -3 -24 -10 -24 -15 0 -5 -7 -9 -15 -9 -8 0 -15 -4
-15 -9 0 -5 -13 -14 -30 -21 -16 -7 -30 -16 -30 -21 0 -5 -7 -9 -15 -9 -8 0
-15 -3 -15 -7 0 -5 -17 -19 -37 -33 -21 -14 -45 -32 -55 -40 -9 -8 -38 -33
-64 -55 -83 -69 -202 -194 -249 -260 -11 -15 -28 -36 -37 -47 -10 -10 -18 -21
-18 -26 0 -4 -11 -19 -25 -34 -14 -15 -25 -30 -25 -33 0 -3 -17 -32 -38 -63
-20 -31 -46 -76 -56 -99 -11 -24 -23 -43 -28 -43 -5 0 -6 -4 -3 -10 3 -5 2
-10 -4 -10 -6 0 -14 -12 -17 -27 -4 -16 -15 -44 -25 -63 -18 -34 -29 -65 -28
-76 0 -3 -7 -16 -15 -30 -9 -13 -14 -24 -10 -24 4 0 1 -7 -6 -15 -7 -8 -9 -15
-5 -15 4 0 2 -7 -5 -15 -7 -8 -9 -15 -5 -15 4 0 2 -7 -5 -15 -7 -8 -10 -15 -6
-15 3 0 1 -12 -5 -27 -6 -16 -13 -36 -15 -45 -2 -10 -6 -27 -9 -38 -13 -51
-16 -67 -21 -95 -3 -16 -7 -41 -10 -55 -18 -93 -27 -212 -27 -345 0 -133 9
-252 27 -345 3 -14 7 -38 10 -55 5 -28 8 -44 21 -95 3 -11 7 -28 9 -37 2 -10
9 -30 15 -45 6 -16 8 -28 5 -28 -4 0 -1 -7 6 -15 7 -8 9 -15 5 -15 -4 0 -2 -7
5 -15 7 -8 9 -15 5 -15 -4 0 -2 -7 5 -15 7 -8 10 -15 6 -15 -4 0 1 -11 10 -25
9 -14 13 -25 10 -25 -4 0 1 -11 10 -25 9 -14 13 -25 10 -25 -4 0 5 -20 19 -43
14 -24 22 -47 18 -50 -3 -4 -1 -7 6 -7 7 0 9 -4 6 -10 -3 -5 -2 -10 3 -10 5 0
19 -24 33 -52 13 -29 30 -59 36 -66 7 -7 13 -19 13 -27 0 -7 3 -15 8 -17 10
-5 72 -97 72 -108 0 -6 5 -10 10 -10 6 0 10 -4 10 -10 0 -5 8 -18 18 -29 9
-10 26 -31 37 -45 11 -15 34 -42 50 -60 17 -18 48 -52 70 -77 39 -43 147 -141
194 -176 13 -10 32 -26 42 -36 11 -9 22 -17 27 -17 4 0 19 -11 34 -25 15 -14
32 -25 38 -25 5 0 10 -4 10 -10 0 -5 7 -10 15 -10 8 0 15 -4 15 -10 0 -5 6
-10 13 -10 8 0 24 -9 37 -20 13 -11 29 -20 36 -20 7 0 19 -6 27 -14 16 -17
137 -79 137 -71 0 4 17 -3 38 -13 32 -18 66 -32 82 -37 19 -4 87 -29 95 -34 6
-3 19 -7 30 -8 11 -2 27 -6 35 -10 17 -7 25 -9 58 -17 12 -3 31 -8 42 -11 42
-10 66 -15 100 -21 19 -3 46 -7 60 -9 87 -15 154 -19 305 -19 155 0 224 4 325
20 59 9 113 19 148 28 23 6 55 14 82 21 8 2 16 4 18 5 1 2 5 3 10 4 55 15 130
41 140 48 6 6 12 7 12 3 0 -4 11 0 25 9 14 9 25 14 25 10 0 -3 15 4 34 16 19
11 45 23 58 25 13 3 24 9 26 15 2 6 8 8 13 4 5 -3 9 -1 9 4 0 5 23 20 52 32
28 12 58 28 65 36 8 8 21 14 29 14 8 0 14 3 14 8 0 4 13 13 28 20 16 6 38 21
50 32 12 11 24 20 27 20 4 0 12 6 20 12 7 7 25 22 39 33 95 73 267 240 331
320 17 21 38 45 48 54 9 8 17 21 17 28 0 7 3 13 8 13 4 0 16 16 26 35 11 19
22 35 26 35 4 0 10 8 14 18 6 20 25 50 44 70 6 7 12 20 12 27 0 7 6 20 13 27
16 15 89 158 81 158 -2 0 2 13 11 30 8 16 16 33 16 37 0 5 7 18 15 31 8 12 12
22 8 22 -4 0 -1 7 6 15 7 8 9 15 5 15 -4 0 -2 7 5 15 7 8 9 15 5 15 -4 0 -2 7
5 15 7 8 9 15 5 15 -4 0 -2 7 5 15 7 8 10 15 6 15 -3 0 -1 12 5 28 6 15 13 35
15 45 2 9 6 27 10 40 3 12 7 31 9 42 2 11 6 32 9 48 19 94 23 122 33 257 9
119 9 152 0 270 -9 111 -14 164 -22 203 -3 15 -7 37 -9 50 -5 27 -13 65 -20
95 -4 12 -8 30 -10 40 -2 9 -9 29 -15 45 -6 15 -8 27 -5 27 4 0 1 7 -6 15 -7
8 -9 15 -5 15 4 0 2 7 -5 15 -7 8 -9 15 -5 15 4 0 2 7 -5 15 -7 8 -9 15 -5 15
4 0 2 7 -5 15 -7 8 -10 15 -6 15 4 0 -1 11 -10 24 -8 14 -15 27 -15 31 1 3 -6
19 -14 35 -8 16 -15 31 -14 32 3 5 -74 162 -81 168 -8 6 -37 57 -46 83 -3 9
-10 17 -15 17 -5 0 -9 7 -9 15 0 8 -4 15 -10 15 -5 0 -10 5 -10 11 0 6 -6 17
-12 24 -27 30 -38 44 -38 50 0 3 -8 13 -17 24 -10 10 -27 31 -38 46 -29 39
-222 233 -279 280 -26 22 -55 48 -64 58 -9 9 -22 17 -28 17 -7 0 -14 3 -16 8
-4 10 -128 92 -139 92 -5 0 -9 4 -9 9 0 5 -15 15 -34 21 -19 6 -36 15 -38 19
-4 10 -128 74 -128 66 0 -4 -17 2 -37 13 -45 23 -108 50 -135 57 -5 2 -10 4
-13 5 -3 1 -9 4 -15 5 -5 1 -12 4 -15 5 -3 1 -9 4 -15 5 -5 1 -11 3 -12 5 -4
2 -25 7 -63 15 -16 3 -39 9 -50 12 -11 4 -24 8 -30 9 -5 2 -21 6 -35 9 -14 4
-36 8 -50 10 -14 2 -41 6 -60 10 -19 3 -51 8 -70 11 -43 6 -426 14 -432 9z
m259 -1267 c7 -6 13 -7 13 -3 0 4 11 0 25 -9 14 -9 25 -14 25 -11 0 3 10 0 23
-7 12 -6 27 -13 32 -14 22 -4 621 -247 633 -256 6 -6 12 -7 12 -3 0 4 11 0 25
-9 14 -9 25 -14 25 -11 0 3 10 0 23 -7 12 -7 24 -13 27 -13 3 0 15 -6 28 -13
12 -7 22 -10 22 -7 0 3 11 -2 25 -11 14 -9 25 -13 25 -10 0 4 11 -1 25 -10 14
-9 25 -13 25 -10 0 4 12 -2 27 -11 15 -10 30 -17 33 -17 6 2 28 -5 55 -16 11
-5 31 -12 45 -16 l25 -7 -25 -9 c-14 -6 -29 -11 -35 -12 -5 -1 -20 -8 -32 -14
-13 -7 -23 -10 -23 -7 0 3 -11 -2 -25 -11 -14 -9 -25 -13 -25 -10 0 4 -11 -1
-25 -10 -14 -9 -25 -13 -25 -10 0 4 -11 -1 -25 -10 -14 -9 -25 -13 -25 -10 0
4 -11 -1 -25 -10 -14 -9 -25 -13 -25 -10 0 4 -11 -1 -25 -10 -14 -9 -25 -13
-25 -10 0 4 -11 -1 -25 -10 -14 -9 -25 -13 -25 -10 0 4 -11 -1 -25 -10 -14 -9
-25 -13 -25 -10 0 4 -11 -1 -25 -10 -14 -9 -25 -13 -25 -10 0 4 -11 -1 -25
-10 -14 -9 -25 -13 -25 -10 0 4 -11 -1 -25 -10 -14 -9 -25 -13 -25 -10 0 4
-11 -1 -25 -10 -14 -9 -25 -13 -25 -10 0 4 -11 -1 -25 -10 -14 -9 -25 -13 -25
-10 0 4 -11 -1 -25 -10 -14 -9 -25 -13 -25 -10 0 4 -11 -1 -25 -10 -14 -9 -25
-13 -25 -10 0 4 -11 -1 -25 -10 -14 -9 -25 -13 -25 -10 0 4 -11 -1 -25 -10
-14 -9 -25 -13 -25 -10 0 4 -11 -1 -25 -10 -14 -9 -25 -13 -25 -10 0 4 -11 -1
-25 -10 -14 -9 -25 -13 -25 -10 0 4 -11 -1 -25 -10 -14 -9 -25 -13 -25 -10 0
4 -11 -1 -25 -10 -14 -9 -25 -13 -25 -10 0 4 -11 -1 -25 -10 -14 -9 -25 -13
-25 -9 0 4 -6 2 -14 -4 -8 -7 -24 -14 -36 -16 -22 -4 -27 -2 -87 29 -18 9 -33
14 -33 11 0 -6 -12 0 -87 39 -18 9 -33 14 -33 11 0 -6 -12 0 -87 39 -18 9 -33
14 -33 11 0 -3 -13 1 -30 9 -16 9 -43 23 -60 32 -16 8 -30 12 -30 9 0 -3 -13
1 -30 9 -16 9 -43 23 -60 32 -16 8 -30 12 -30 9 0 -3 -13 1 -30 9 -16 9 -43
23 -60 32 -16 8 -30 12 -30 9 0 -3 -13 1 -30 9 -16 9 -43 23 -60 32 -16 8 -30
12 -30 9 0 -3 -13 1 -30 9 -16 9 -43 23 -60 32 -16 8 -30 12 -30 9 0 -3 -15 2
-32 11 -76 39 -88 45 -88 39 0 -6 -10 -1 -92 42 -18 9 -34 16 -35 15 -2 -1 -9
-2 -15 -1 -10 0 14 14 42 24 3 1 13 5 23 8 9 4 25 10 35 14 9 3 19 7 22 7 3 1
16 8 30 16 14 7 26 13 27 12 3 -2 23 4 51 15 9 3 19 7 22 7 3 1 14 7 25 13 11
6 23 12 27 12 14 3 43 13 75 27 17 8 37 14 45 14 8 0 19 5 26 12 7 7 12 9 12
5 0 -4 10 -2 23 5 12 7 24 13 27 14 5 1 10 3 55 20 11 4 22 8 25 8 3 1 14 7
25 13 11 6 23 12 27 12 10 2 34 9 56 18 9 3 19 7 22 7 3 1 14 7 25 13 11 6 25
12 30 13 19 5 40 12 72 26 17 8 36 14 42 14 6 0 19 4 29 9 14 8 36 17 62 26 5
2 16 6 55 21 11 4 22 8 25 8 3 1 16 8 30 16 14 7 26 13 27 12 4 -2 36 8 52 17
22 11 54 11 68 -1z m-721 -803 c19 -8 35 -13 37 -12 1 1 19 -9 40 -21 20 -13
37 -20 37 -17 0 4 11 0 25 -9 14 -9 25 -14 25 -10 0 3 16 -4 35 -16 19 -12 35
-18 35 -15 0 4 11 0 25 -9 14 -9 25 -14 25 -10 0 3 16 -4 35 -16 19 -12 35
-18 35 -15 0 4 11 0 25 -9 14 -9 25 -14 25 -10 0 3 16 -4 35 -16 19 -12 35
-18 35 -15 0 4 11 0 25 -9 14 -9 25 -14 25 -10 0 3 16 -4 35 -16 19 -12 35
-18 35 -15 0 4 11 0 25 -9 14 -9 25 -14 25 -10 0 3 11 -1 24 -9 13 -9 27 -13
31 -9 4 4 10 7 13 7 4 1 17 6 30 13 12 7 22 10 22 7 0 -3 11 2 25 11 14 9 25
13 25 10 0 -4 11 1 25 10 14 9 25 13 25 10 0 -4 11 1 25 10 14 9 25 13 25 10
0 -4 11 1 25 10 14 9 25 13 25 10 0 -4 11 1 25 10 14 9 25 13 25 10 0 -4 11 1
25 10 14 9 25 13 25 10 0 -4 11 1 25 10 14 9 25 13 25 10 0 -4 11 1 25 10 14
9 25 13 25 10 0 -4 11 1 25 10 14 9 25 13 25 10 0 -4 11 1 25 10 14 9 25 13
25 10 0 -4 11 1 25 10 14 9 25 13 25 10 0 -4 11 1 25 10 14 9 25 13 25 10 0
-4 10 0 22 8 12 9 26 16 31 16 4 0 7 -126 7 -280 l-2 -280 -32 -35 c-25 -26
-135 -96 -149 -94 -1 0 -14 -4 -30 -10 -15 -6 -38 -13 -50 -15 -12 -3 -33 -8
-47 -11 -45 -12 -78 -17 -180 -31 -66 -9 -403 -10 -480 -1 -61 7 -103 13 -140
22 -14 3 -37 8 -52 10 -15 2 -37 9 -48 15 -11 6 -20 8 -20 4 0 -3 -7 -1 -15 6
-8 7 -15 10 -15 6 0 -4 -11 1 -25 10 -14 9 -25 13 -25 10 0 -7 -54 19 -78 38
-42 32 -70 69 -76 97 -7 38 -8 549 -1 549 3 0 21 -7 41 -15z"/>
</g>
</svg>
